<svg xmlns="http://www.w3.org/2000/svg" viewBox="0 0 1200 800" width="1200" height="800">
  <defs>
    <linearGradient id="bg" x1="0%" y1="0%" x2="100%" y2="100%">
      <stop offset="0%" stop-color="#090d16" />
      <stop offset="100%" stop-color="#05070c" />
    </linearGradient>
    <linearGradient id="glow" x1="0%" y1="0%" x2="100%" y2="100%">
      <stop offset="0%" stop-color="#38d9e8" stop-opacity="0.4" />
      <stop offset="100%" stop-color="#6aa8ff" stop-opacity="0.25" />
    </linearGradient>
    <linearGradient id="textGrad" x1="0%" y1="0%" x2="100%" y2="0%">
      <stop offset="0%" stop-color="#38d9e8" />
      <stop offset="100%" stop-color="#6aa8ff" />
    </linearGradient>
  </defs>

  <rect width="1200" height="800" fill="url(#bg)" />
  <circle cx="600" cy="400" r="500" fill="url(#glow)" filter="blur(60px)" />
  <path d="M 0 200 L 1200 200 M 0 400 L 1200 400 M 0 600 L 1200 600 M 300 0 L 300 800 M 600 0 L 600 800 M 900 0 L 900 800" stroke="rgba(255,255,255,0.04)" stroke-width="1" />
  <rect x="100" y="150" width="1000" height="500" rx="32" fill="rgba(255,255,255,0.03)" stroke="rgba(255,255,255,0.1)" stroke-width="2" />
  
  <text x="160" y="310" font-family="system-ui, -apple-system, sans-serif" font-size="52" font-weight="800" fill="#ffffff">Predict Lagoon Water Quality</text>
  <text x="160" y="370" font-family="system-ui, -apple-system, sans-serif" font-size="34" font-weight="700" fill="url(#textGrad)">48 Hours Ahead</text>
  <text x="160" y="440" font-family="system-ui, -apple-system, sans-serif" font-size="28" font-weight="500" fill="rgba(255,255,255,0.7)">Time Series ML &amp; Ocean Sensor Analytics</text>
  
  <rect x="160" y="490" width="280" height="48" rx="24" fill="#38d9e8" fill-opacity="0.15" stroke="#38d9e8" stroke-opacity="0.4" />
  <text x="300" y="521" font-family="system-ui, -apple-system, sans-serif" font-size="18" font-weight="700" fill="#38d9e8" text-anchor="middle">STAGE.MU CHALLENGE</text>
</svg>
